<svg role="img" viewBox="0 0 100 100" xmlns="http://www.w3.org/2000/svg" id="Revolut--Streamline-Simple-Icons" height="100" width="100">
  <desc>
    Revolut Streamline Icon: https://streamlinehq.com
  </desc>
  <title>Revolut</title>
  <path d="M87.13875 28.985833333333336C87.13875 13.003333333333334 74.12416666666667 0 58.126250000000006 0H10.1v16.085416666666667h45.7425c7.24 0 13.2375 5.687916666666667 13.369583333333333 12.679166666666669 0.06666666666666668 3.5 -1.2475 6.804166666666667 -3.699166666666667 9.301666666666668 -2.4525 2.499166666666667 -5.729166666666667 3.87625 -9.226666666666667 3.87625H38.46750000000001a1.1483333333333334 1.1483333333333334 0 0 0 -1.147916666666667 1.1466666666666667v14.295833333333334c0 0.24375000000000002 0.075 0.47583333333333333 0.21666666666666667 0.6716666666666667L67.76916666666668 100h22.130833333333335l-30.302916666666672 -42.05833333333334c15.260416666666668 -0.7658333333333334 27.54166666666667 -13.588333333333335 27.54166666666667 -28.955833333333334zM28.726250000000004 24.678750000000004H10.1V100h18.626666666666665z" fill="#000000" stroke-width="4.1667"></path>
</svg>