<?xml version="1.0" encoding="UTF-8"?>
<svg id="Layer_1" data-name="Layer 1" xmlns="http://www.w3.org/2000/svg" viewBox="0 0 162.35 133.46">
  <defs>
    <style>
      .cls-1 {
        fill: #fff;
      }
    </style>
  </defs>
  <rect x="47.41" y="25.46" width="108" height="108" rx="20" ry="20"/>
  <path class="cls-1" d="M28.17,77.69l19.24-16.15C61.73,49.53,110.63,8.5,120.76,0c4.88,5.82,9.77,11.64,14.65,17.46-3.19,2.68-6.38,5.35-9.57,8.03-26.14,21.94-52.29,43.87-78.43,65.81l-4.59,3.85s-14.65-17.46-14.65-17.46Z"/>
  <path class="cls-1" d="M162.35,95.74l-43.93-52.35c-2.1-2.51-2.1-5.98.02-7.75l9.8-8.23c2.12-1.78,5.54-1.18,7.64,1.33l23.86,28.44"/>
  <rect class="cls-1" x="99.12" y="49.19" width="22.8" height="45.91" rx="5" ry="5" transform="translate(-20.52 87.92) rotate(-40)"/>
</svg>