<?xml version="1.0" encoding="UTF-8"?>
<svg id="Layer_1" xmlns="http://www.w3.org/2000/svg" version="1.1" viewBox="0 0 108 108">
  <!-- Generator: Adobe Illustrator 29.5.1, SVG Export Plug-In . SVG Version: 2.1.0 Build 141)  -->
  <defs>
    <style>
      .st0 {
        fill: #fff;
      }
    </style>
  </defs>
  <rect width="108" height="108" rx="20" ry="20"/>
  <path class="st0" d="M-19.2,52.2L0,36.1C14.3,24.1,63.2-17,73.3-25.5c4.9,5.8,9.8,11.6,14.7,17.5-3.2,2.7-6.4,5.3-9.6,8C52.3,22,26.1,43.9,0,65.8l-4.6,3.8s-14.6-17.5-14.6-17.5Z"/>
  <path class="st0" d="M114.9,70.3l-43.9-52.3c-2.1-2.5-2.1-6,0-7.8l9.8-8.2c2.1-1.8,5.5-1.2,7.6,1.3l23.9,28.4"/>
  <rect class="st0" x="51.7" y="23.7" width="22.8" height="45.9" rx="5" ry="5" transform="translate(-15.2 51.5) rotate(-40)"/>
  <path class="st0" d="M100.1,65.5"/>
</svg>
